<svg width="24" height="24" viewBox="0 0 24 24" fill="none" xmlns="http://www.w3.org/2000/svg">
<path d="M12.0273 0H11.9727C5.36035 0 0 5.36193 0 11.9762V12.0309C0 18.6451 5.36035 24.0071 11.9727 24.0071H12.0273C18.6397 24.0071 24 18.6451 24 12.0309V11.9762C24 5.36193 18.6397 0 12.0273 0Z" fill="#00E510"/>
<path d="M14.339 15.5146C11.2674 15.5146 8.76842 13.0141 8.76758 9.9416C8.76842 9.16275 9.40241 8.52942 10.1793 8.52942C10.2592 8.52942 10.3383 8.53615 10.4139 8.5496C10.5804 8.57736 10.7385 8.63371 10.884 8.71866C10.905 8.73128 10.9193 8.75146 10.9226 8.77502L11.2472 10.8214C11.2514 10.8458 11.2438 10.8693 11.2279 10.887C11.0488 11.0855 10.8201 11.2285 10.5653 11.3L10.4425 11.3344L10.4888 11.453C10.9075 12.5195 11.7601 13.3715 12.8271 13.7921L12.9457 13.8392L12.9802 13.7164C13.0516 13.4615 13.1946 13.2328 13.393 13.0536C13.4073 13.0402 13.4267 13.0334 13.446 13.0334C13.4502 13.0334 13.4544 13.0334 13.4595 13.0343L15.5052 13.3589C15.5296 13.3631 15.5498 13.3766 15.5624 13.3976C15.6465 13.5431 15.7028 13.7021 15.7314 13.8686C15.7448 13.9426 15.7507 14.0209 15.7507 14.1024C15.7507 14.8804 15.1176 15.5138 14.339 15.5146Z" fill="#FDFDFD"/>
<path d="M19.7859 11.3294C19.6202 9.45714 18.7626 7.7203 17.371 6.43933C15.971 5.15079 14.1548 4.44092 12.2554 4.44092C8.08649 4.44092 4.69456 7.83385 4.69456 12.0039C4.69456 13.4035 5.0805 14.7669 5.81118 15.9545L4.18164 19.5628L9.39904 19.0068C10.3063 19.3786 11.2665 19.567 12.2545 19.567C12.5143 19.567 12.7809 19.5535 13.0483 19.5258C13.2837 19.5005 13.5217 19.4635 13.7554 19.4164C17.2466 18.7108 19.7951 15.6114 19.8153 12.0443V12.0039C19.8153 11.7769 19.8052 11.5498 19.7851 11.3294H19.7859ZM9.6 17.4231L6.71341 17.7309L7.57527 15.8208L7.40289 15.5895C7.39028 15.5727 7.37767 15.5558 7.36337 15.5365C6.61503 14.5028 6.21983 13.2816 6.21983 12.0048C6.21983 8.67578 8.92732 5.96749 12.2554 5.96749C15.3732 5.96749 18.0159 8.40074 18.2707 11.5069C18.2842 11.6734 18.2917 11.8408 18.2917 12.0056C18.2917 12.0527 18.2909 12.099 18.29 12.1486C18.2261 14.9334 16.2813 17.2986 13.5603 17.9008C13.3526 17.947 13.1399 17.9824 12.928 18.0051C12.7077 18.0303 12.4815 18.0429 12.257 18.0429C11.4574 18.0429 10.6805 17.8882 9.94642 17.582C9.86486 17.5492 9.78498 17.5139 9.71014 17.4777L9.60084 17.4247L9.6 17.4231Z" fill="#FDFDFD"/>
</svg>
