<svg width="1440" height="836" viewBox="0 0 1440 836" fill="none" xmlns="http://www.w3.org/2000/svg">
<g clip-path="url(#clip0_279_394)">
<rect width="1440" height="836" fill="#001841"/>
<rect width="1440" height="587" transform="translate(0 249)" fill="#001841"/>
<g opacity="0.39" clip-path="url(#clip1_279_394)">
<line y1="-0.5" x2="1056.65" y2="-0.5" transform="matrix(0.429952 -0.902852 0.429952 0.902852 -232 497)" stroke="url(#paint0_linear_279_394)"/>
<line y1="-0.5" x2="1056.65" y2="-0.5" transform="matrix(0.429952 -0.902852 0.429952 0.902852 -34 497)" stroke="url(#paint1_linear_279_394)"/>
<line y1="-0.5" x2="1056.65" y2="-0.5" transform="matrix(0.429952 -0.902852 0.429952 0.902852 164 497)" stroke="url(#paint2_linear_279_394)"/>
<line y1="-0.5" x2="1056.65" y2="-0.5" transform="matrix(0.429952 -0.902852 0.429952 0.902852 362 497)" stroke="url(#paint3_linear_279_394)"/>
<line y1="-0.5" x2="1056.65" y2="-0.5" transform="matrix(0.429952 -0.902852 0.429952 0.902852 560 497)" stroke="url(#paint4_linear_279_394)"/>
<line y1="-0.5" x2="1056.65" y2="-0.5" transform="matrix(0.429952 -0.902852 0.429952 0.902852 758 497)" stroke="url(#paint5_linear_279_394)"/>
<line y1="-0.5" x2="1056.65" y2="-0.5" transform="matrix(0.429952 -0.902852 0.429952 0.902852 956 497)" stroke="url(#paint6_linear_279_394)"/>
<circle cx="758" cy="-756" r="968.5" stroke="url(#paint7_linear_279_394)" stroke-opacity="0.39"/>
<circle cx="758" cy="-589" r="968.5" stroke="url(#paint8_linear_279_394)" stroke-opacity="0.39"/>
<g opacity="0.3">
<path d="M180.177 21.4521L200.732 36.5349" stroke="url(#paint9_linear_279_394)"/>
<path d="M182.497 40.999L194.184 17.0863" stroke="url(#paint10_linear_279_394)"/>
</g>
<g opacity="0.32">
<path d="M-10.1851 0.999023L8.76807 19.999" stroke="url(#paint11_linear_279_394)"/>
<path d="M-6.80225 23.9131L4.88409 0.000316122" stroke="url(#paint12_linear_279_394)"/>
</g>
<g opacity="0.3">
<path d="M123.501 142.499L143.001 159.499" stroke="url(#paint13_linear_279_394)"/>
<path d="M124.431 163.913L136.117 140" stroke="url(#paint14_linear_279_394)"/>
</g>
<g opacity="0.29">
<path d="M332 114L355 125" stroke="url(#paint15_linear_279_394)"/>
<path d="M338.016 131.004L348.991 107.992" stroke="url(#paint16_linear_279_394)"/>
</g>
<path d="M268.603 246.898L290.501 259.5" stroke="url(#paint17_linear_279_394)"/>
<path d="M274.017 265.012L284.993 242" stroke="url(#paint18_linear_279_394)"/>
<path d="M500 177.5L525.5 184.5" stroke="url(#paint19_linear_279_394)"/>
<path d="M506 193.5L517.5 169.5" stroke="url(#paint20_linear_279_394)"/>
<g opacity="0.29">
<path d="M429.5 322.5L457 332" stroke="url(#paint21_linear_279_394)"/>
<path d="M436.023 340L447.5 316.5" stroke="url(#paint22_linear_279_394)"/>
</g>
<g opacity="0.29">
<path d="M681 209.5L708 211" stroke="url(#paint23_linear_279_394)"/>
<path d="M689.023 225L700.523 201" stroke="url(#paint24_linear_279_394)"/>
</g>
<path d="M605.266 367.492L632.5 371.5" stroke="url(#paint25_linear_279_394)"/>
<path d="M613 385L625 360" stroke="url(#paint26_linear_279_394)"/>
<g opacity="0.3">
<path d="M882 205L910.198 200.81" stroke="url(#paint27_linear_279_394)"/>
<path d="M891.023 216L902.523 192" stroke="url(#paint28_linear_279_394)"/>
</g>
<g opacity="0.3">
<path d="M799 378.999L827.5 376.999" stroke="url(#paint29_linear_279_394)"/>
<path d="M808.023 391.999L819.523 367.999" stroke="url(#paint30_linear_279_394)"/>
</g>
<g opacity="0.32">
<path d="M1110.5 146L1137 135.5" stroke="url(#paint31_linear_279_394)"/>
<path d="M1117 158L1132 127" stroke="url(#paint32_linear_279_394)"/>
</g>
<g opacity="0.32">
<path d="M1014.5 345.5L1042.5 337" stroke="url(#paint33_linear_279_394)"/>
<path d="M1023.02 355.5L1035.52 330" stroke="url(#paint34_linear_279_394)"/>
</g>
</g>
<g filter="url(#filter0_f_279_394)">
<path d="M263 785.002C-126.632 796.008 -90.5689 845.637 -49.2943 916.263C350.611 1012.57 1237.92 1117.68 1587.93 767.674C2025.44 330.163 1618.57 349.994 1503 361C1387.43 372.007 967.131 589.472 747 639.002C526.869 688.531 750.04 771.244 263 785.002Z" fill="#0F545C"/>
</g>
<g filter="url(#filter1_f_279_394)">
<path d="M273 827C-155.062 839.092 -31.2335 865.039 14.1121 942.63C453.46 1048.44 1428.29 1163.92 1812.82 779.386C2293.48 298.723 1585.97 702.908 1459 715C1332.03 727.092 1265.65 455.921 1023.81 510.335C781.964 564.75 808.078 811.885 273 827Z" fill="#8BCEFF"/>
</g>
<g filter="url(#filter2_f_279_394)">
<path d="M831 849C402.938 861.092 325.485 866.55 370.831 944.141C810.179 1049.95 1785.01 1165.43 2169.54 780.897C2650.2 300.234 1921.65 239.774 1794.68 251.866C1667.71 263.958 1622.37 457.432 1380.53 511.847C1138.68 566.262 1366.08 833.885 831 849Z" fill="#E9FAFF"/>
</g>
</g>
<defs>
<filter id="filter0_f_279_394" x="-164.704" y="265.887" width="2041.77" height="834.876" filterUnits="userSpaceOnUse" color-interpolation-filters="sRGB">
<feFlood flood-opacity="0" result="BackgroundImageFix"/>
<feBlend mode="normal" in="SourceGraphic" in2="BackgroundImageFix" result="shape"/>
<feGaussianBlur stdDeviation="37.3647" result="effect1_foregroundBlur_279_394"/>
</filter>
<filter id="filter1_f_279_394" x="-137.854" y="403.11" width="2216.03" height="742.218" filterUnits="userSpaceOnUse" color-interpolation-filters="sRGB">
<feFlood flood-opacity="0" result="BackgroundImageFix"/>
<feBlend mode="normal" in="SourceGraphic" in2="BackgroundImageFix" result="shape"/>
<feGaussianBlur stdDeviation="41.05" result="effect1_foregroundBlur_279_394"/>
</filter>
<filter id="filter2_f_279_394" x="259.429" y="150.512" width="2172.29" height="996.328" filterUnits="userSpaceOnUse" color-interpolation-filters="sRGB">
<feFlood flood-opacity="0" result="BackgroundImageFix"/>
<feBlend mode="normal" in="SourceGraphic" in2="BackgroundImageFix" result="shape"/>
<feGaussianBlur stdDeviation="41.05" result="effect1_foregroundBlur_279_394"/>
</filter>
<linearGradient id="paint0_linear_279_394" x1="742.592" y1="0.971416" x2="152.041" y2="0.971386" gradientUnits="userSpaceOnUse">
<stop stop-color="#3D3D3D" stop-opacity="0"/>
<stop offset="1" stop-color="#2D2929"/>
</linearGradient>
<linearGradient id="paint1_linear_279_394" x1="742.592" y1="0.971416" x2="152.041" y2="0.971386" gradientUnits="userSpaceOnUse">
<stop stop-color="#3D3D3D" stop-opacity="0"/>
<stop offset="1" stop-color="#2D2929"/>
</linearGradient>
<linearGradient id="paint2_linear_279_394" x1="742.592" y1="0.971416" x2="152.041" y2="0.971386" gradientUnits="userSpaceOnUse">
<stop stop-color="#3D3D3D" stop-opacity="0"/>
<stop offset="1" stop-color="#2D2929"/>
</linearGradient>
<linearGradient id="paint3_linear_279_394" x1="742.592" y1="0.971416" x2="152.041" y2="0.971386" gradientUnits="userSpaceOnUse">
<stop stop-color="#3D3D3D" stop-opacity="0"/>
<stop offset="1" stop-color="#2D2929"/>
</linearGradient>
<linearGradient id="paint4_linear_279_394" x1="742.592" y1="0.971416" x2="152.041" y2="0.971386" gradientUnits="userSpaceOnUse">
<stop stop-color="#3D3D3D" stop-opacity="0"/>
<stop offset="1" stop-color="#2D2929"/>
</linearGradient>
<linearGradient id="paint5_linear_279_394" x1="742.592" y1="0.971416" x2="152.041" y2="0.971386" gradientUnits="userSpaceOnUse">
<stop stop-color="#3D3D3D" stop-opacity="0"/>
<stop offset="1" stop-color="#2D2929"/>
</linearGradient>
<linearGradient id="paint6_linear_279_394" x1="742.592" y1="0.971416" x2="152.041" y2="0.971386" gradientUnits="userSpaceOnUse">
<stop stop-color="#3D3D3D" stop-opacity="0"/>
<stop offset="1" stop-color="#2D2929"/>
</linearGradient>
<linearGradient id="paint7_linear_279_394" x1="758" y1="-1725" x2="758" y2="213" gradientUnits="userSpaceOnUse">
<stop offset="0.795" stop-color="#3F3F3F" stop-opacity="0"/>
<stop offset="1" stop-color="#3A3A3A"/>
</linearGradient>
<linearGradient id="paint8_linear_279_394" x1="758" y1="-1558" x2="758" y2="380" gradientUnits="userSpaceOnUse">
<stop offset="0.795" stop-color="#3F3F3F" stop-opacity="0"/>
<stop offset="1" stop-color="#3A3A3A"/>
</linearGradient>
<linearGradient id="paint9_linear_279_394" x1="182.427" y1="23.0562" x2="201.436" y2="34.102" gradientUnits="userSpaceOnUse">
<stop stop-color="white" stop-opacity="0"/>
<stop offset="0.49" stop-color="white"/>
<stop offset="1" stop-color="white" stop-opacity="0"/>
</linearGradient>
<linearGradient id="paint10_linear_279_394" x1="182.505" y1="40.0224" x2="192.544" y2="17.098" gradientUnits="userSpaceOnUse">
<stop stop-color="white" stop-opacity="0"/>
<stop offset="0.49" stop-color="white"/>
<stop offset="1" stop-color="white" stop-opacity="0"/>
</linearGradient>
<linearGradient id="paint11_linear_279_394" x1="-8.10667" y1="3.01478" x2="11.7196" y2="12.086" gradientUnits="userSpaceOnUse">
<stop stop-color="white" stop-opacity="0"/>
<stop offset="0.49" stop-color="white"/>
<stop offset="1" stop-color="white" stop-opacity="0"/>
</linearGradient>
<linearGradient id="paint12_linear_279_394" x1="-6.79462" y1="22.9364" x2="3.24432" y2="0.0120576" gradientUnits="userSpaceOnUse">
<stop stop-color="white" stop-opacity="0"/>
<stop offset="0.49" stop-color="white"/>
<stop offset="1" stop-color="white" stop-opacity="0"/>
</linearGradient>
<linearGradient id="paint13_linear_279_394" x1="125.638" y1="144.304" x2="145.046" y2="154.103" gradientUnits="userSpaceOnUse">
<stop stop-color="white" stop-opacity="0"/>
<stop offset="0.49" stop-color="white"/>
<stop offset="1" stop-color="white" stop-opacity="0"/>
</linearGradient>
<linearGradient id="paint14_linear_279_394" x1="124.438" y1="162.936" x2="134.477" y2="140.012" gradientUnits="userSpaceOnUse">
<stop stop-color="white" stop-opacity="0"/>
<stop offset="0.49" stop-color="white"/>
<stop offset="1" stop-color="white" stop-opacity="0"/>
</linearGradient>
<linearGradient id="paint15_linear_279_394" x1="334.509" y1="115.158" x2="355.24" y2="122.479" gradientUnits="userSpaceOnUse">
<stop stop-color="white" stop-opacity="0"/>
<stop offset="0.49" stop-color="white"/>
<stop offset="1" stop-color="white" stop-opacity="0"/>
</linearGradient>
<linearGradient id="paint16_linear_279_394" x1="338.037" y1="130.056" x2="348.592" y2="108.51" gradientUnits="userSpaceOnUse">
<stop stop-color="white" stop-opacity="0"/>
<stop offset="0.49" stop-color="white"/>
<stop offset="1" stop-color="white" stop-opacity="0"/>
</linearGradient>
<linearGradient id="paint17_linear_279_394" x1="269.101" y1="246.948" x2="290.404" y2="260.116" gradientUnits="userSpaceOnUse">
<stop stop-color="white" stop-opacity="0"/>
<stop offset="0.49" stop-color="white"/>
<stop offset="1" stop-color="white" stop-opacity="0"/>
</linearGradient>
<linearGradient id="paint18_linear_279_394" x1="274.017" y1="264.512" x2="284.993" y2="242" gradientUnits="userSpaceOnUse">
<stop stop-color="white" stop-opacity="0"/>
<stop offset="0.49" stop-color="white"/>
<stop offset="1" stop-color="white" stop-opacity="0"/>
</linearGradient>
<linearGradient id="paint19_linear_279_394" x1="502.782" y1="178.237" x2="521.534" y2="189.774" gradientUnits="userSpaceOnUse">
<stop stop-color="white" stop-opacity="0"/>
<stop offset="0.49" stop-color="white"/>
<stop offset="1" stop-color="white" stop-opacity="0"/>
</linearGradient>
<linearGradient id="paint20_linear_279_394" x1="506.023" y1="192.512" x2="516.999" y2="170" gradientUnits="userSpaceOnUse">
<stop stop-color="white" stop-opacity="0"/>
<stop offset="0.49" stop-color="white"/>
<stop offset="1" stop-color="white" stop-opacity="0"/>
</linearGradient>
<linearGradient id="paint21_linear_279_394" x1="432.5" y1="323.5" x2="455" y2="334.5" gradientUnits="userSpaceOnUse">
<stop stop-color="white" stop-opacity="0"/>
<stop offset="0.49" stop-color="white"/>
<stop offset="1" stop-color="white" stop-opacity="0"/>
</linearGradient>
<linearGradient id="paint22_linear_279_394" x1="436.046" y1="339.032" x2="446.668" y2="316.831" gradientUnits="userSpaceOnUse">
<stop stop-color="white" stop-opacity="0"/>
<stop offset="0.49" stop-color="white"/>
<stop offset="1" stop-color="white" stop-opacity="0"/>
</linearGradient>
<linearGradient id="paint23_linear_279_394" x1="683.941" y1="209.639" x2="704.29" y2="218.215" gradientUnits="userSpaceOnUse">
<stop stop-color="white" stop-opacity="0"/>
<stop offset="0.49" stop-color="white"/>
<stop offset="1" stop-color="white" stop-opacity="0"/>
</linearGradient>
<linearGradient id="paint24_linear_279_394" x1="689.046" y1="224.012" x2="700.023" y2="201.5" gradientUnits="userSpaceOnUse">
<stop stop-color="white" stop-opacity="0"/>
<stop offset="0.49" stop-color="white"/>
<stop offset="1" stop-color="white" stop-opacity="0"/>
</linearGradient>
<linearGradient id="paint25_linear_279_394" x1="608.236" y1="367.91" x2="624.086" y2="380.88" gradientUnits="userSpaceOnUse">
<stop stop-color="white" stop-opacity="0"/>
<stop offset="0.49" stop-color="white"/>
<stop offset="1" stop-color="white" stop-opacity="0"/>
</linearGradient>
<linearGradient id="paint26_linear_279_394" x1="613.024" y1="383.971" x2="624.445" y2="360.505" gradientUnits="userSpaceOnUse">
<stop stop-color="white" stop-opacity="0"/>
<stop offset="0.49" stop-color="white"/>
<stop offset="1" stop-color="white" stop-opacity="0"/>
</linearGradient>
<linearGradient id="paint27_linear_279_394" x1="884.545" y1="206.366" x2="909.004" y2="200.671" gradientUnits="userSpaceOnUse">
<stop stop-color="white" stop-opacity="0"/>
<stop offset="0.49" stop-color="white"/>
<stop offset="1" stop-color="white" stop-opacity="0"/>
</linearGradient>
<linearGradient id="paint28_linear_279_394" x1="891.046" y1="215.012" x2="902.023" y2="192.5" gradientUnits="userSpaceOnUse">
<stop stop-color="white" stop-opacity="0"/>
<stop offset="0.49" stop-color="white"/>
<stop offset="1" stop-color="white" stop-opacity="0"/>
</linearGradient>
<linearGradient id="paint29_linear_279_394" x1="801.749" y1="380.836" x2="825.481" y2="374.005" gradientUnits="userSpaceOnUse">
<stop stop-color="white" stop-opacity="0"/>
<stop offset="0.49" stop-color="white"/>
<stop offset="1" stop-color="white" stop-opacity="0"/>
</linearGradient>
<linearGradient id="paint30_linear_279_394" x1="808.046" y1="391.011" x2="819.023" y2="368.499" gradientUnits="userSpaceOnUse">
<stop stop-color="white" stop-opacity="0"/>
<stop offset="0.49" stop-color="white"/>
<stop offset="1" stop-color="white" stop-opacity="0"/>
</linearGradient>
<linearGradient id="paint31_linear_279_394" x1="1112.38" y1="145.942" x2="1133.12" y2="150.078" gradientUnits="userSpaceOnUse">
<stop stop-color="white" stop-opacity="0"/>
<stop offset="0.49" stop-color="white"/>
<stop offset="1" stop-color="white" stop-opacity="0"/>
</linearGradient>
<linearGradient id="paint32_linear_279_394" x1="1117.06" y1="155.312" x2="1130.17" y2="127.658" gradientUnits="userSpaceOnUse">
<stop stop-color="white" stop-opacity="0"/>
<stop offset="0.55" stop-color="white"/>
<stop offset="1" stop-color="white" stop-opacity="0"/>
</linearGradient>
<linearGradient id="paint33_linear_279_394" x1="1016.69" y1="345.969" x2="1041.71" y2="344.902" gradientUnits="userSpaceOnUse">
<stop stop-color="white" stop-opacity="0"/>
<stop offset="0.49" stop-color="white"/>
<stop offset="1" stop-color="white" stop-opacity="0"/>
</linearGradient>
<linearGradient id="paint34_linear_279_394" x1="1023.05" y1="354.45" x2="1034.55" y2="330.325" gradientUnits="userSpaceOnUse">
<stop stop-color="white" stop-opacity="0"/>
<stop offset="0.49" stop-color="white"/>
<stop offset="1" stop-color="white" stop-opacity="0"/>
</linearGradient>
<clipPath id="clip0_279_394">
<rect width="1440" height="836" fill="white"/>
</clipPath>
<clipPath id="clip1_279_394">
<rect width="1440" height="2148" fill="white" transform="translate(-232 -1725)"/>
</clipPath>
</defs>
</svg>
